<mxfile host="65bd71144e">
    <diagram id="vJMtR-HFyviTxx3fbQLr" name="Seite-1">
        <mxGraphModel dx="772" dy="589" grid="1" gridSize="10" guides="1" tooltips="1" connect="1" arrows="1" fold="1" page="1" pageScale="1" pageWidth="827" pageHeight="1169" math="0" shadow="0">
            <root>
                <mxCell id="0"/>
                <mxCell id="1" parent="0"/>
                <mxCell id="2" value="sd: Pommes" style="shape=umlFrame;whiteSpace=wrap;html=1;" vertex="1" parent="1">
                    <mxGeometry x="120" y="80" width="600" height="590" as="geometry"/>
                </mxCell>
                <mxCell id="3" value="p: Pommes" style="shape=umlLifeline;perimeter=lifelinePerimeter;whiteSpace=wrap;html=1;container=1;collapsible=0;recursiveResize=0;outlineConnect=0;size=40;" vertex="1" parent="1">
                    <mxGeometry x="490" y="320" width="100" height="280" as="geometry"/>
                </mxCell>
                <mxCell id="39" value="" style="html=1;points=[];perimeter=orthogonalPerimeter;fillColor=#bac8d3;strokeColor=#23445d;" vertex="1" parent="3">
                    <mxGeometry x="50" y="100" width="10" height="40" as="geometry"/>
                </mxCell>
                <mxCell id="40" value="Zubereitsungszeit" style="edgeStyle=orthogonalEdgeStyle;html=1;align=left;spacingLeft=2;endArrow=block;rounded=0;entryX=1;entryY=0;" edge="1" target="39" parent="3">
                    <mxGeometry relative="1" as="geometry">
                        <mxPoint x="55" y="80" as="sourcePoint"/>
                        <Array as="points">
                            <mxPoint x="85" y="80"/>
                        </Array>
                    </mxGeometry>
                </mxCell>
                <mxCell id="41" value="return" style="html=1;verticalAlign=bottom;endArrow=open;dashed=1;endSize=8;" edge="1" parent="3" target="16">
                    <mxGeometry relative="1" as="geometry">
                        <mxPoint x="40" y="100" as="sourcePoint"/>
                        <mxPoint x="-40" y="100" as="targetPoint"/>
                    </mxGeometry>
                </mxCell>
                <mxCell id="46" value="" style="shape=umlDestroy;whiteSpace=wrap;html=1;strokeWidth=3;" vertex="1" parent="3">
                    <mxGeometry x="35" y="170" width="30" height="30" as="geometry"/>
                </mxCell>
                <mxCell id="15" value="m: Mitarbeiter" style="shape=umlLifeline;perimeter=lifelinePerimeter;whiteSpace=wrap;html=1;container=1;collapsible=0;recursiveResize=0;outlineConnect=0;" vertex="1" parent="1">
                    <mxGeometry x="320" y="160" width="100" height="440" as="geometry"/>
                </mxCell>
                <mxCell id="16" value="" style="html=1;points=[];perimeter=orthogonalPerimeter;fillColor=#808080;" vertex="1" parent="15">
                    <mxGeometry x="45" y="90" width="10" height="180" as="geometry"/>
                </mxCell>
                <mxCell id="17" value="k: Kunde" style="shape=umlLifeline;perimeter=lifelinePerimeter;whiteSpace=wrap;html=1;container=1;collapsible=0;recursiveResize=0;outlineConnect=0;" vertex="1" parent="1">
                    <mxGeometry x="160" y="160" width="100" height="440" as="geometry"/>
                </mxCell>
                <mxCell id="18" value="" style="html=1;points=[];perimeter=orthogonalPerimeter;fillColor=#808080;" vertex="1" parent="17">
                    <mxGeometry x="45" y="90" width="10" height="270" as="geometry"/>
                </mxCell>
                <mxCell id="32" value="" style="html=1;points=[];perimeter=orthogonalPerimeter;" vertex="1" parent="17">
                    <mxGeometry x="55" y="120" width="10" height="60" as="geometry"/>
                </mxCell>
                <mxCell id="25" value="" style="endArrow=open;startArrow=none;endFill=0;startFill=0;endSize=8;html=1;verticalAlign=bottom;labelBackgroundColor=none;strokeWidth=1;exitX=1.5;exitY=-0.004;exitDx=0;exitDy=0;exitPerimeter=0;entryX=-0.3;entryY=0;entryDx=0;entryDy=0;entryPerimeter=0;" edge="1" parent="1" source="18" target="16">
                    <mxGeometry width="160" relative="1" as="geometry">
                        <mxPoint x="260" y="339.5" as="sourcePoint"/>
                        <mxPoint x="420" y="339.5" as="targetPoint"/>
                    </mxGeometry>
                </mxCell>
                <mxCell id="28" value="bestellePommes()" style="text;strokeColor=none;fillColor=none;align=left;verticalAlign=top;spacingLeft=4;spacingRight=4;overflow=hidden;rotatable=0;points=[[0,0.5],[1,0.5]];portConstraint=eastwest;" vertex="1" parent="1">
                    <mxGeometry x="240" y="220" width="110" height="26" as="geometry"/>
                </mxCell>
                <mxCell id="33" value="mitMayo()" style="html=1;verticalAlign=bottom;endArrow=block;entryX=1;entryY=0;exitX=0;exitY=0.161;exitDx=0;exitDy=0;exitPerimeter=0;" edge="1" target="32" parent="1" source="16">
                    <mxGeometry relative="1" as="geometry">
                        <mxPoint x="290" y="280" as="sourcePoint"/>
                    </mxGeometry>
                </mxCell>
                <mxCell id="34" value="return: Jo!()" style="html=1;verticalAlign=bottom;endArrow=open;dashed=1;endSize=8;exitX=1;exitY=0.95;entryX=0;entryY=0.483;entryDx=0;entryDy=0;entryPerimeter=0;" edge="1" source="32" parent="1" target="16">
                    <mxGeometry relative="1" as="geometry">
                        <mxPoint x="290" y="337" as="targetPoint"/>
                    </mxGeometry>
                </mxCell>
                <mxCell id="37" value="" style="endArrow=open;startArrow=none;endFill=0;startFill=0;endSize=8;html=1;verticalAlign=bottom;labelBackgroundColor=none;strokeWidth=1;exitX=1.1;exitY=0.5;exitDx=0;exitDy=0;exitPerimeter=0;entryX=-0.04;entryY=0.07;entryDx=0;entryDy=0;entryPerimeter=0;" edge="1" parent="1" source="16" target="3">
                    <mxGeometry width="160" relative="1" as="geometry">
                        <mxPoint x="380" y="339.99999999999994" as="sourcePoint"/>
                        <mxPoint x="480" y="341" as="targetPoint"/>
                    </mxGeometry>
                </mxCell>
                <mxCell id="38" value="pommesMachen()" style="text;strokeColor=none;fillColor=none;align=left;verticalAlign=top;spacingLeft=4;spacingRight=4;overflow=hidden;rotatable=0;points=[[0,0.5],[1,0.5]];portConstraint=eastwest;" vertex="1" parent="1">
                    <mxGeometry x="380" y="310" width="110" height="26" as="geometry"/>
                </mxCell>
                <mxCell id="43" value="return" style="html=1;verticalAlign=bottom;endArrow=open;dashed=1;endSize=8;" edge="1" parent="1">
                    <mxGeometry relative="1" as="geometry">
                        <mxPoint x="365" y="430" as="sourcePoint"/>
                        <mxPoint x="220" y="430" as="targetPoint"/>
                    </mxGeometry>
                </mxCell>
                <mxCell id="44" value="" style="endArrow=open;startArrow=none;endFill=0;startFill=0;endSize=8;html=1;verticalAlign=bottom;labelBackgroundColor=none;strokeWidth=1;exitX=1.217;exitY=0.93;exitDx=0;exitDy=0;exitPerimeter=0;" edge="1" parent="1" source="18" target="3">
                    <mxGeometry width="160" relative="1" as="geometry">
                        <mxPoint x="223.9999999999999" y="500" as="sourcePoint"/>
                        <mxPoint x="366" y="501.08000000000004" as="targetPoint"/>
                    </mxGeometry>
                </mxCell>
                <mxCell id="45" value="pommesEssen()" style="text;strokeColor=none;fillColor=none;align=left;verticalAlign=top;spacingLeft=4;spacingRight=4;overflow=hidden;rotatable=0;points=[[0,0.5],[1,0.5]];portConstraint=eastwest;" vertex="1" parent="1">
                    <mxGeometry x="380" y="470" width="100" height="26" as="geometry"/>
                </mxCell>
            </root>
        </mxGraphModel>
    </diagram>
</mxfile>